<svg xmlns="http://www.w3.org/2000/svg" xmlns:xlink="http://www.w3.org/1999/xlink">
    <symbol style="shape-rendering:geometricPrecision; text-rendering:geometricPrecision; image-rendering:optimizeQuality; fill-rule:evenodd; clip-rule:evenodd" viewBox="0 0 6000 2000" id="logo">
        <title>Bfyme</title>
         <path class="fil0" d="M281 730l1 -446c0,-36 -15,-68 -38,-94 -22,-25 -53,-46 -85,-55 -17,-5 -48,-10 -61,6 -5,6 -7,15 -6,23 2,43 0,85 0,128 0,84 -1,168 -1,251 0,74 0,148 0,222 0,47 0,94 2,141 3,84 101,140 167,156 11,3 28,1 30,-13 59,-319 534,-302 534,49 0,191 -126,289 -292,293 -129,4 -289,-95 -395,-171 -2,-1 -5,-3 -7,-3 -24,3 -49,71 -55,91 -6,25 -16,90 7,109 135,111 320,180 490,176 257,-6 436,-209 436,-485 0,-262 -188,-490 -435,-490 -78,0 -154,23 -220,67l-71 47zm2621 642c66,0 120,54 120,120 0,66 -54,120 -120,120 -66,0 -120,-54 -120,-120 0,-66 54,-120 120,-120zm1626 -239l15 231 0 2c-2,199 144,237 299,203 89,-19 166,-53 249,-91l22 25c204,232 578,179 775,-23 19,-20 29,-50 32,-78 4,-29 1,-104 -31,-116 -2,-1 -14,0 -16,0 -34,32 -79,71 -135,103 -216,127 -347,110 -458,-5 88,-48 582,-281 610,-315 23,-27 12,-69 1,-100 -159,-445 -866,-405 -906,144 -4,54 0,109 12,162l9 39c-64,32 -171,71 -233,23 -52,-40 -45,-104 -45,-165l0 -2 0 -2c1,-13 1,-26 1,-38 0,-273 -205,-495 -457,-495l-1 0c-115,0 -224,46 -309,129l-31 31 -31 -31c-84,-84 -194,-129 -308,-129l-1 0c-253,0 -457,221 -457,495 0,13 0,26 1,38l0 2 0 2c0,57 -1,114 -1,171 0,48 0,96 -1,145 0,23 -1,46 0,69 1,12 3,24 12,32 23,22 73,17 100,9 24,-7 51,-19 71,-35 5,-4 19,-18 19,-27l0 -1 0 -406 0 -2c2,-152 115,-275 256,-275 95,0 182,57 227,149l8 16 -3 17c-6,32 -9,64 -9,97 0,13 0,26 1,38l0 2 0 2c0,57 -1,114 -1,171 0,48 0,96 -1,145 0,23 -1,46 0,69 1,12 3,24 12,32 23,22 73,17 100,9 24,-7 51,-19 71,-35 5,-4 19,-18 19,-27l0 -1 0 -402 0 -3 0 -2c3,-151 115,-275 256,-275 141,0 255,123 256,275l0 4zm1172 -149l-65 33 -447 215c-22,-93 -30,-190 83,-308 120,-111 349,-102 429,60zm-4571 547c1,12 3,23 12,31 23,22 73,16 100,9 24,-7 51,-18 70,-35 5,-4 19,-18 19,-26l0 -1 0 -406 21 -15c48,-34 94,-71 141,-106 477,-349 202,134 325,432 48,117 180,202 411,202l1 0c131,0 188,-23 285,-112 5,152 -100,277 -290,276 -133,-1 -273,-29 -393,-91 -12,-6 -32,-14 -44,-4 -29,23 -9,111 0,140 4,14 9,27 15,40 14,31 119,63 148,71 56,15 117,27 175,33 32,3 65,5 97,5 254,0 456,-129 459,-426 2,-213 1,-426 2,-639 0,-48 0,-96 1,-145 0,-23 1,-46 0,-69 -1,-12 -3,-24 -12,-32 -23,-22 -73,-16 -100,-9 -24,7 -51,18 -70,35 -5,4 -19,18 -19,26l0 1 0 402 0 3 0 2c-3,152 -146,299 -287,299 -520,0 159,-1014 -731,-652l-137 73 0 -231 0 -3 0 -2c2,-150 119,-296 262,-296l2 0 2 0c14,1 26,7 39,9 6,1 13,1 19,0 9,-2 14,-8 19,-17l0 -1 0 -1c18,-32 37,-63 53,-97 6,-14 18,-40 13,-55 -13,-35 -122,-34 -150,-34l-1 0c-252,0 -457,221 -457,494 0,13 0,26 1,38l0 2 -1 879z"/>
    </symbol>
    <symbol viewBox="0 0 2600 2000" id="massagem">
        <title>massagem</title>
        <path class="fil0" d="M2512 992c-41,-69 -131,-69 -195,-97 4,-64 -4,-127 1,-190 5,-48 28,-94 44,-137 16,-43 31,-88 48,-131 13,-33 26,-65 36,-98 8,-23 19,-57 5,-79 -13,-17 -41,-2 -32,18 6,15 -16,53 -22,67 -14,34 -28,69 -41,103 -18,40 -29,83 -46,123 -16,41 -30,82 -38,125 -15,86 11,176 -8,263 -9,38 -24,75 -34,113 -11,38 -27,73 -40,109 -4,6 -8,13 -11,19 -11,21 -19,43 -27,67 -16,48 -43,88 -71,130 -27,39 -55,78 -78,118 -19,34 -33,71 -51,105 -27,-5 -43,-19 -41,-52 1,-47 22,-94 41,-136 18,-41 40,-81 64,-120 9,-14 18,-29 26,-44 17,-38 44,-67 70,-97 10,-12 -6,-31 -18,-21 -49,39 -75,96 -107,151 -27,47 -54,95 -76,145 -6,13 -11,27 -17,41 0,0 -1,0 -1,1 -24,26 -41,60 -59,90 -19,34 -42,64 -66,93 -18,23 -36,45 -56,67 -9,9 -19,16 -33,13 -15,-3 -18,-18 -20,-31 0,-1 0,-4 -1,-4 4,-9 8,-17 10,-25 13,-30 28,-55 46,-81 37,-52 73,-107 100,-167 13,-29 22,-59 34,-87 14,-33 29,-63 43,-93 27,-59 72,-107 86,-172 4,-17 -18,-22 -26,-8 -27,53 -61,103 -91,156 -30,57 -51,120 -76,182 -25,60 -61,115 -98,167 -16,22 -31,44 -43,69 -11,26 -18,53 -34,77l-1 0c-19,5 -33,5 -50,-9 -9,-7 -17,-19 -22,-32 5,-4 9,-9 9,-15 1,-47 40,-75 61,-113 29,-52 58,-107 83,-162 26,-53 41,-109 55,-166 8,-33 16,-65 23,-97 6,-33 9,-64 11,-97 1,-13 -17,-17 -19,-3 -12,64 -30,128 -46,191 -16,63 -36,121 -65,178 -14,27 -28,55 -43,82 -13,25 -24,51 -41,75 -18,25 -38,47 -48,75 -10,-15 -16,-30 -18,-51 -3,-30 3,-61 9,-90 9,-39 19,-77 27,-116 8,-45 11,-91 16,-137 10,-90 32,-174 50,-261 8,-40 11,-79 7,-121 -3,-17 -6,-35 -9,-52 0,0 0,0 0,-1 1,-8 -3,-15 -8,-19 -6,-15 -14,-31 -21,-48 -4,-12 -21,-7 -19,5 0,12 3,22 5,34 -31,-3 -69,1 -83,23 -58,-31 -127,-43 -179,-16 -1,1 -3,1 -3,3 -13,-18 -26,-36 -38,-55 9,1 18,4 27,7 16,3 33,1 49,0 40,-3 76,-22 112,-40 63,-34 125,-68 168,-129 45,-65 93,-130 149,-186 29,-29 60,-55 93,-78 33,-23 71,-37 103,-61 21,-15 3,-45 -19,-39 -34,9 -66,33 -97,51 -31,20 -60,43 -87,69 -59,55 -114,115 -150,188 -16,30 -36,58 -60,79 -29,26 -67,45 -100,64 -36,21 -73,42 -114,47 -17,3 -36,3 -53,0 -13,-1 -24,-3 -36,1 -24,-33 -48,-67 -74,-99 -30,-39 -63,-77 -103,-108 -38,-31 -81,-56 -117,-89 -36,-33 -73,-64 -114,-91 -43,-29 -87,-46 -135,-63 -12,-4 -22,17 -8,22 39,15 77,43 112,69 34,26 66,56 98,86 31,32 66,57 103,82 40,27 73,57 107,95 58,68 109,143 164,215 27,35 53,73 80,108 10,14 13,29 14,45 0,11 -1,19 -6,27 -1,3 -8,5 -13,8 0,-1 -1,-3 -3,-3 -43,-45 -89,-81 -130,-125 -42,-46 -83,-91 -127,-135 -21,-23 -41,-42 -63,-63 -23,-19 -43,-43 -66,-63 -17,-14 -39,-15 -56,-29 -9,-7 -11,-19 -13,-31 -3,-11 -6,-19 -11,-29 -6,-10 -23,-1 -18,11 9,18 4,40 13,58 10,21 32,29 50,35 26,10 46,35 66,56 23,22 46,44 68,67 46,45 88,95 133,143 43,47 90,89 137,130 5,4 10,5 13,4 3,3 6,4 10,5 0,3 3,5 5,7 23,13 21,48 1,64 -32,27 -60,-8 -85,-27 -65,-53 -135,-98 -203,-147 -58,-42 -105,-98 -162,-142 -63,-49 -138,-81 -204,-126 -12,-9 -28,10 -14,19 77,56 166,97 236,163 32,30 63,63 98,90 39,30 81,59 122,89 22,17 46,32 69,48 0,1 1,3 1,3 8,13 14,25 19,39 9,19 1,29 -16,35 -32,10 -64,-10 -91,-25 -64,-37 -136,-61 -198,-100 -134,-85 -258,-180 -402,-245 -13,-7 -23,15 -10,22 144,69 262,184 399,264 9,7 16,16 23,25 13,15 16,34 4,51 -11,15 -41,4 -54,-1 -40,-14 -80,-36 -118,-55 -51,-23 -102,-48 -152,-77 -184,-105 -356,-241 -509,-392 -10,-10 -24,8 -14,19 86,89 172,174 270,249 95,77 197,142 303,200 54,29 110,53 166,77 36,14 78,40 117,19 31,-17 36,-53 23,-85 4,1 6,4 9,5 38,17 76,33 113,53 30,17 65,40 100,39 31,0 59,-19 66,-51 3,-10 2,-21 -1,-31 1,1 3,3 4,4 26,23 54,41 90,30 23,-8 39,-37 43,-63 5,-22 -5,-43 -21,-57 6,-4 9,-11 11,-19 4,-17 5,-33 4,-49 -4,-43 -21,-73 -44,-108 -11,-15 -22,-27 -31,-42 39,0 77,0 115,15 41,17 71,47 105,77 17,15 39,-9 28,-29 -13,-22 -33,-41 -56,-59 9,-3 21,-3 27,-4 11,0 24,0 37,3 4,17 5,35 6,52 4,47 -8,93 -18,137 -11,45 -23,89 -31,135 -8,48 -13,96 -18,145 -5,46 -11,91 -22,137 -8,34 -18,67 -23,102 -8,51 -4,134 51,155 3,25 13,47 29,65 22,22 56,27 82,11 1,0 1,0 1,-1 4,-1 6,-3 8,-5 3,-3 4,-5 6,-8 2,15 11,27 29,34 36,10 60,-11 81,-38 13,-17 23,-35 36,-51 16,-19 31,-39 45,-59 14,-21 28,-43 40,-65 3,-3 4,-7 6,-9 -1,9 -1,18 0,27 6,43 38,65 75,67 5,3 11,4 17,0l1 0c4,-1 6,-4 9,-8 26,-22 36,-65 51,-95 23,-45 55,-87 85,-130 27,-37 56,-78 71,-123 8,-25 9,-49 18,-73 1,-3 1,-4 3,-7 1,-1 1,-1 3,-3 22,-37 37,-79 53,-119 17,-39 29,-81 43,-121 4,-11 8,-22 10,-34 19,12 41,19 63,30 18,9 37,17 55,27 18,9 34,22 54,29 22,8 41,-15 29,-38z"/>
    </symbol>
    <symbol viewBox="0 0 2000 2000" id="maquiagem">
        <title>maquiagem</title>
        <path class="fil0" d="M1835 964l0 0c-2,-2 -5,-5 -5,-5 -107,-95 -205,-63 -209,-63 -9,2 -14,9 -16,19l-23 151c-7,0 -12,2 -16,7l-53 53c-5,5 -7,9 -7,16 0,7 2,12 7,16l5 5 -616 663c-14,14 -49,53 -14,88 12,12 21,14 33,14 23,0 47,-21 56,-30l660 -619 5 5c5,5 12,7 16,7 5,0 12,-2 16,-7l53 -53c5,-5 7,-9 7,-16 0,0 0,-2 0,-2l149 -23c9,-2 16,-7 19,-16 2,-5 33,-102 -63,-209 0,2 0,2 -2,0zm-556 -302c0,37 14,72 42,100 28,28 63,42 100,42 37,0 72,-14 100,-42 26,-26 42,-63 42,-100 0,-37 -14,-72 -42,-100 -56,-56 -144,-56 -200,0 -28,28 -42,63 -42,100zm74 -65c19,-19 42,-28 67,-28 26,0 49,9 67,28 19,19 28,42 28,67 0,26 -9,49 -28,67 -37,37 -98,37 -133,0 -19,-19 -28,-42 -28,-67 0,-26 7,-51 26,-67zm-256 -256c-56,56 -56,144 0,200 26,26 63,42 100,42 37,0 72,-14 100,-42 56,-56 56,-144 0,-200 -56,-56 -144,-56 -200,0zm167 33c37,37 37,98 0,133 -19,19 -42,28 -67,28 -26,0 -49,-9 -67,-28 -37,-37 -37,-98 0,-133 19,-19 42,-28 67,-28 23,0 49,9 67,28zm-191 435c-56,56 -56,144 0,200 26,26 63,42 100,42 37,0 72,-14 100,-42 56,-56 56,-144 0,-200 -53,-56 -144,-56 -200,0zm167 165c-19,19 -42,28 -67,28 -26,0 -49,-9 -67,-28 -37,-37 -37,-98 0,-133 19,-19 42,-28 67,-28 23,0 49,9 67,28 37,37 37,98 0,133zm-288 -147c37,0 72,-14 100,-42 56,-56 56,-144 0,-200 -56,-56 -144,-56 -200,0 -56,56 -56,144 0,200 28,28 63,42 100,42zm-67 -209c19,-19 42,-28 67,-28 26,0 49,9 67,28 37,37 37,98 0,133 -37,37 -98,37 -133,0 -40,-35 -40,-95 -2,-133zm-56 435c-56,56 -56,144 0,200 28,28 63,42 100,42 37,0 72,-14 100,-42 56,-56 56,-144 0,-200 -56,-53 -144,-53 -200,0zm167 167c-37,37 -98,37 -133,0 -37,-37 -37,-98 0,-133 19,-19 42,-28 67,-28 26,0 49,9 67,28 33,35 33,95 -2,133zm-291 -149c37,0 72,-14 100,-42 56,-56 56,-144 0,-200 -26,-26 -63,-42 -100,-42 -37,0 -72,14 -100,42 -56,56 -56,144 0,200 28,28 63,42 100,42zm-65 -207c19,-19 42,-28 67,-28 26,0 49,9 67,28 37,37 37,98 0,133 -19,19 -42,28 -67,28 -26,0 -49,-9 -67,-28 -37,-37 -37,-95 0,-133zm42 393c-37,0 -72,14 -100,42 -56,56 -56,144 0,200 26,26 63,42 100,42 37,0 72,-14 100,-42 56,-56 56,-144 0,-200 -26,-28 -60,-42 -100,-42zm67 207c-19,19 -42,28 -67,28 -26,0 -49,-9 -67,-28 -37,-37 -37,-98 0,-133 19,-19 42,-28 67,-28 26,0 49,9 67,28 37,37 37,95 0,133zm-188 -388c-56,-56 -144,-56 -200,0 -56,56 -56,144 0,200 28,28 63,42 100,42 37,0 72,-14 100,-42 53,-56 53,-144 0,-200zm-35 167c-37,37 -98,37 -133,0 -37,-37 -37,-98 0,-133 19,-19 42,-28 67,-28 26,0 49,9 67,28 35,35 35,95 -2,133zm1251 -626l-540 -540c-9,-9 -23,-9 -33,0l-1107 1107c-9,9 -9,23 0,33l540 540c5,5 12,7 16,7 5,0 12,-2 16,-7l1107 -1107c9,-9 9,-23 0,-33zm-1123 1091l-505 -507 1074 -1074 505 505 -1074 1077zm284 158c-16,14 -21,16 -21,16l-2 -2c0,-2 2,-7 16,-23l619 -658 49 49 -660 619zm714 -628l-93 -93 21 -21 93 93 -21 21zm205 -91l-160 23 -72 -72 23 -160c26,-5 86,-2 151,58 60,65 63,126 58,151z"/>

    </symbol>
    <symbol viewBox="0 0 2000 2000" id="manicure">
        <title>manicure</title>
        <path class="fil0" d="M1399 364c-1,11 -4,22 -7,33 -8,17 -16,34 -26,50 -13,23 -26,45 -40,68 -11,18 -22,35 -33,53 -17,28 -34,55 -51,83 -8,12 -15,24 -24,35 -5,6 -9,12 -14,18 -5,6 -8,12 -13,18 -9,11 5,31 18,23 2,-1 3,-2 5,-2 2,0 4,-1 6,-3 2,-2 4,-3 6,-6l3 -2c4,-4 7,-7 11,-11 59,-61 200,-228 288,-336 2,1 5,2 8,3 22,6 45,-7 63,-23 -10,39 -30,75 -58,105 -34,41 -166,217 -189,246 -25,28 -48,59 -66,92 -1,2 -1,4 -1,6 0,9 7,16 16,16 3,0 5,-1 8,-2l0 0 0 0 0 0 0 0c1,0 1,-1 2,-1l0 0 0 0c40,-34 353,-354 389,-392l1 -1c3,7 9,13 17,14 26,6 52,-10 72,-28 -3,8 -7,16 -11,23 -116,152 -241,300 -372,439 -2,3 -3,6 -3,10 0,8 5,15 13,16 2,1 5,1 7,0 3,0 5,-2 7,-3 8,-5 15,-11 22,-18l6 -6c86,-65 294,-221 328,-248 7,-6 13,-11 20,-17 2,2 4,3 7,4 16,7 34,4 50,-3 -11,16 -23,32 -36,47 -32,36 -68,68 -102,102 -78,77 -157,154 -235,231 -23,22 -43,45 -64,69 -21,24 -41,48 -62,71 -5,6 -5,14 -1,19 -1,7 5,15 14,10 53,-33 112,-57 173,-71 15,-3 31,-4 46,-4 15,0 30,1 44,4 12,2 25,6 36,10 2,1 4,3 7,4 -12,2 -24,4 -36,9 -28,10 -67,28 -66,56 0,1 0,2 1,3 -5,2 -10,4 -15,7 -34,17 -68,37 -99,60 -61,45 -118,95 -179,141 -33,26 -69,49 -107,68 -5,2 -8,7 -8,12 0,7 6,13 13,13 2,0 3,0 4,-1 71,-29 138,-68 198,-117 59,-46 117,-96 181,-136 17,-11 34,-20 51,-29 27,-3 53,-8 79,-14 25,-7 59,-17 67,-38 6,-14 -5,-26 -23,-30 -2,0 -4,-1 -6,-1 0,-1 0,-3 0,-5 -7,-35 -49,-49 -80,-55 -12,-2 -25,-3 -38,-3 -22,0 -44,3 -65,9 -38,11 -75,26 -110,44 21,-17 42,-35 61,-54 41,-39 80,-80 121,-119 40,-40 80,-80 121,-120 37,-35 73,-73 107,-112 17,-21 32,-44 43,-68 5,-11 9,-23 13,-35 1,-3 2,-7 3,-10 17,-16 29,-37 34,-60l0 0c1,-2 1,-5 1,-7 0,-12 -9,-23 -22,-24 -26,2 -51,14 -68,33 -7,6 -14,13 -20,20l-14 13c-19,17 -38,35 -57,52 -22,20 -129,102 -220,172 79,-86 182,-201 210,-241 13,-19 25,-38 37,-57 7,-9 14,-18 20,-28 11,-17 17,-36 19,-56l0 0c0,-11 1,-26 -3,-38 6,-15 10,-30 10,-46 0,-1 0,-2 0,-3 0,-14 -11,-26 -26,-26 -1,0 -2,0 -3,0 -15,1 -29,10 -40,21 -1,0 -2,1 -3,2 -15,12 -28,25 -40,40 -16,20 -32,41 -48,61 -20,27 -161,173 -267,281 53,-69 146,-189 162,-210 36,-39 56,-91 56,-144 0,-5 0,-10 -1,-16 10,-17 16,-36 16,-56l0 0c0,-1 0,-2 0,-3 0,-13 -11,-24 -24,-24 -1,0 -2,0 -3,0 -17,1 -32,13 -45,27 -1,1 -3,3 -4,4l-1 1c-4,5 -7,9 -11,13 -5,7 -10,14 -15,22 -48,63 -144,182 -223,277 16,-27 32,-55 47,-83 5,-9 10,-19 15,-28l12 -21c19,-34 42,-74 22,-112 15,-18 24,-40 25,-64 0,-1 0,-1 0,-2 0,-11 -9,-20 -20,-20 -1,0 -2,0 -2,0 -21,2 -38,23 -50,39 -3,4 -6,9 -9,13 -3,4 -7,8 -10,12 -9,11 -17,22 -25,33 -9,13 -50,64 -87,110 -15,18 -29,36 -43,55 -4,5 -8,10 -10,14l0 1c-19,25 -39,50 -58,75 -40,51 -79,101 -116,154 -30,41 -57,84 -82,128 -20,-21 -48,-49 -60,-64 -20,-24 -40,-47 -60,-71 -3,-4 -8,-10 -14,-17 -14,-17 -28,-34 -43,-50 -38,-44 -82,-94 -92,-107 -8,-11 -17,-22 -26,-32l-2 -2c-4,-5 -7,-10 -11,-15 -11,-13 -26,-31 -45,-32 0,0 -1,0 -1,0 -10,0 -17,8 -17,17 0,1 0,2 0,2 1,17 7,33 17,47 -2,1 -3,2 -4,3 -22,40 4,81 24,115l13 21c5,9 10,18 16,27 17,27 34,54 51,81 -83,-92 -184,-207 -234,-268 -5,-7 -10,-14 -16,-21 -3,-4 -7,-9 -11,-13l-1 -1c-1,-2 -3,-3 -4,-4 -13,-13 -29,-25 -46,-25 -1,0 -1,0 -2,0 -13,0 -24,11 -24,24 0,1 0,2 0,4l0 0c2,20 8,39 19,56 0,2 0,4 0,7 0,56 23,111 63,150 17,20 115,136 171,203 -110,-103 -257,-243 -278,-269 -16,-20 -33,-40 -50,-59 -5,-5 -9,-10 -14,-15 -14,-16 -32,-32 -52,-33 -1,0 -1,0 -2,0 -12,0 -22,10 -22,22 0,1 0,2 0,3l0 0c1,6 1,12 3,18 -1,0 -2,1 -3,2 -15,13 -14,39 -13,57l0 0c3,20 10,39 21,56 6,10 13,19 21,27 13,19 26,37 39,55 29,39 137,149 220,232 -94,-66 -204,-144 -227,-163 -20,-16 -39,-33 -59,-50l-14 -12c-7,-7 -14,-13 -21,-19 -18,-19 -43,-30 -69,-31 -12,2 -21,12 -21,24 0,3 0,5 1,8l0 0c7,23 19,43 37,59 1,3 2,7 3,10 4,12 9,23 14,34 12,24 28,46 46,66 35,37 72,74 111,107 42,38 84,76 125,114 42,38 83,76 126,114 20,18 42,35 64,51 -36,-16 -73,-30 -112,-39 -18,-4 -36,-6 -55,-6 -16,0 -32,2 -48,5 -31,7 -72,23 -78,58l0 0c0,1 0,1 0,2l0 2c-2,1 -4,1 -6,2 -17,5 -28,18 -21,31 10,21 44,29 69,35 25,5 50,8 75,10l2 1c19,8 37,18 54,28 65,37 125,85 186,128 62,46 130,83 203,109 1,0 3,1 4,1 7,0 13,-6 13,-13 0,-5 -3,-10 -8,-12 -39,-17 -75,-39 -110,-63 -63,-43 -122,-91 -185,-133 -32,-21 -66,-40 -101,-56 -5,-2 -10,-4 -15,-6 0,-2 1,-3 1,-5 -1,-28 -40,-45 -68,-53 -11,-3 -23,-6 -34,-7l5 -3c11,-5 23,-9 36,-12 18,-4 36,-6 55,-6 12,0 24,1 35,2 62,11 121,33 176,64 8,4 14,-4 13,-11 3,-5 4,-13 -2,-19 -22,-22 -43,-46 -65,-68 -22,-23 -44,-45 -67,-67 -81,-74 -163,-148 -245,-221 -36,-32 -73,-63 -106,-98 -14,-14 -26,-29 -38,-45 17,6 35,9 50,0 3,-1 5,-3 7,-5 7,5 14,11 21,16 35,27 250,173 338,235l6 5c7,6 15,12 23,17 2,2 5,2 7,3 3,1 5,1 7,-1 7,-2 12,-9 12,-16 0,-4 -1,-7 -4,-10 -137,-134 -268,-276 -390,-423 -8,-14 -15,-28 -19,-44 -1,-4 -2,-8 -3,-12 4,5 8,11 13,15 19,19 49,43 77,35 4,-1 7,-3 10,-6l0 0c37,36 362,342 404,375l0 0 0 0 0 0 0 0 0 0 0 0 0 0 0 0 0 0 0 0 0 0 0 0 0 0 0 0 1 0 0 0 0 0 0 0 0 0 0 0 0 0c2,1 5,2 8,2 9,0 16,-7 16,-16 0,-2 0,-4 -1,-6 -19,-32 -43,-62 -69,-89 -24,-28 -164,-197 -199,-237 -29,-29 -50,-64 -62,-102 18,15 41,27 64,20 3,-1 5,-2 8,-3 94,105 242,267 303,324 3,3 7,7 10,10l2 2c3,2 5,4 7,6 2,2 4,2 6,2 2,1 3,2 5,2 14,8 26,-13 17,-24 -5,-6 -9,-12 -14,-18 -5,-6 -10,-11 -15,-17 -9,-11 -17,-23 -25,-34 -18,-27 -36,-54 -55,-81 -12,-17 -23,-34 -35,-51 -15,-22 -29,-44 -43,-66 -10,-16 -20,-32 -28,-49 -5,-14 -9,-28 -10,-43 14,13 34,26 53,21l1 0 12 13c33,44 116,139 136,163 22,28 44,56 66,84 11,13 35,39 54,60 -29,54 -54,111 -75,168 -11,32 -21,66 -29,99 -7,34 -12,68 -14,103 0,0 0,1 0,1 0,7 6,12 12,12 6,0 11,-4 12,-11 5,-30 12,-59 19,-89 7,-29 15,-58 25,-86 20,-56 45,-111 74,-164 61,-109 130,-214 205,-314 21,-29 42,-57 62,-86 18,-26 98,-124 129,-169l10 -12c2,1 4,2 6,2 17,4 33,-4 47,-16zm-938 1209c-7,-2 -15,-4 -23,-4 -16,0 -31,5 -44,14 -9,12 -15,25 -17,40l-11 35c-9,-2 -19,-2 -28,-2 0,0 0,0 0,0 -18,0 -65,2 -62,30 2,25 48,42 66,50 24,10 145,34 146,17 2,-39 1,-78 1,-117 0,-27 3,-54 -28,-62zm533 -1100c-15,-16 -35,-25 -56,-25 -2,0 -5,0 -7,0 -13,6 -25,15 -35,26l-27 25c-7,-6 -15,-11 -23,-16 -15,-9 -57,-30 -69,-5 -11,23 21,60 33,76 16,21 109,101 118,88 21,-33 40,-67 59,-101 13,-23 29,-45 7,-68zm739 1083c14,-14 21,-33 21,-53 0,-4 0,-8 -1,-12 -7,-13 -16,-24 -28,-33l-26 -25c6,-8 11,-16 15,-24 8,-16 27,-59 1,-69 -24,-9 -59,25 -74,37 -20,17 -95,115 -81,123 34,19 69,36 104,53 24,12 47,27 68,3z"/>

    </symbol>
    <symbol viewBox="0 0 2000 2000" id="podologia">
        <title>podologia</title>
         <path class="fil0" d="M972 458c10,-16 12,-45 -4,-58 -2,-2 -113,15 -113,21 -2,22 1,47 19,62 15,13 36,14 54,8 18,-6 34,-18 44,-34zm387 795c-26,89 -83,174 -99,264 -2,10 11,16 17,7 48,-78 77,-179 98,-267 2,-10 -13,-14 -16,-4zm103 -310c-2,-2 14,-162 -96,-183 -20,-5 -36,-3 -49,4 5,-39 11,-77 1,-117 -15,-58 -80,-81 -135,-68 0,-36 -13,-69 -36,-101 -36,-50 -92,-54 -117,-12 2,-67 -30,-114 -106,-120 -25,-2 -45,4 -61,15 -24,-64 -122,-60 -176,-31 -125,69 -64,173 -55,286 11,131 -7,264 -8,396 -1,234 37,446 -36,675 -4,13 17,22 23,10 114,-236 37,-515 46,-766 4,-105 11,-209 5,-314 -2,-36 -10,-69 -20,-104 -12,-41 6,-105 7,-103 4,60 36,141 106,143 24,1 40,-10 49,-26 -5,124 26,275 38,328 2,10 19,8 18,-2 -3,-82 -102,-526 86,-482 104,25 50,175 37,238 -18,84 -25,169 -14,255 2,15 26,16 24,0 -10,-125 19,-239 34,-361 1,0 24,-59 87,-25 37,32 50,74 39,126 -6,34 -26,69 -38,100 -27,68 -39,133 -27,206 2,15 27,11 26,-4 -4,-88 18,-155 46,-231 6,18 20,33 42,39 38,11 71,-35 66,-64 -5,-29 -68,-18 -89,-27 2,-8 4,-16 5,-24 30,0 59,-4 87,13 22,14 29,42 31,66 3,37 -8,73 -10,110 -48,72 -32,245 -26,296 1,10 16,14 19,3 19,-86 -16,-173 19,-253 5,17 31,26 47,25 52,2 61,-42 57,-49 2,2 22,55 22,79 1,41 -18,80 -15,120 1,10 13,14 19,5 9,-15 15,-32 20,-50 150,206 58,441 22,669 -2,14 17,20 21,6 64,-202 140,-526 -32,-696zm-712 -417c-43,-3 -62,-53 -71,-94 34,16 78,18 107,-3 6,37 14,100 -36,97zm60 -72c-3,-16 -7,-32 -13,-43 0,0 0,0 0,0 -1,-3 -5,-5 -9,-4 -43,18 -129,-19 -133,-17 14,-17 34,-32 61,-43 36,-14 112,-21 136,21 -21,19 -34,49 -42,86zm373 200c9,3 19,4 28,6 13,2 25,1 38,-1 -8,20 -16,40 -43,33 -19,-5 -25,-21 -23,-38zm168 180c-7,2 -15,0 -21,-3 -4,-2 -6,-6 -9,-10 9,0 44,2 52,4 -6,4 -13,8 -22,10zm-33 -31c3,-4 5,-8 8,-11 18,-21 53,-3 73,14 0,0 -69,-5 -81,-2zm-180 -280c-3,-19 -104,-28 -106,-23 -14,28 7,66 37,72 32,6 73,-31 69,-49zm-63 25c-13,-1 -17,-13 -19,-25 11,2 22,3 33,3 7,0 15,1 22,1 -9,12 -20,22 -35,21zm-127 -106c-5,10 -15,18 -25,22 -26,10 -36,-7 -38,-29 22,-3 44,-9 64,-19 1,9 3,17 -1,26z"/>
 
    </symbol>
    <symbol viewBox="0 0 2000 2000" id="penteado">
        <title>penteado</title>
        <path class="fil0" d="M533 376l0 0 0 0 0 0 0 0 0 0 0 0 0 0 0 0 0 0 0 0 0 0 0 0 0 0 0 0 0 0 0 0 0 0 0 0 0 0 0 0 0 0 0 0 0 0 0 0 0 0 0 0 0 0 0 0 0 0 0 0 0 0 0 0 0 0 0 0 0 0 0 0 0 0 0 0 0 0 0 0 0 0 0 0 0 0 0 0 0 0 0 0 0 0 0 0 0 0 0 0 0 0 0 0 0 0 0 0 0 0 0 0 0 0 0 0 0 0 0 0 0 0 0 0 0 0 0 0 0 0 0 0 0 0 0 0 0 0 0 0 0 0 0 0 0 0 0 0 0 0 0 0 0 0 0 0 0 0 0 0 0 0 0 0 0 0 0 0 0 0 0 0 0 0 1 0 0 0 0 0 0 0 0 0 0 0 0 0 0 0 0 0 0 0 0 0 0 0 0 0 0 0 0 0 0 0 1 0 0 0 1 0 0 0 0 0 0 0 0 0 1037 -138 0 0 2 0 0 0 0 0 1 0c219,0 397,179 397,398 0,219 -178,397 -397,398l0 0 0 0 0 0 0 0 0 0 0 0 0 0 0 0 0 0 0 0 0 0 0 0 0 0 0 0 0 0 0 0 0 0 0 0 0 0 0 0 0 0 0 0 0 0 0 0 -1037 -138 0 0 0 0 0 0 0 0 0 0 0 0 0 0 0 0 0 0 0 0 0 0 0 0 0 0 0 0 0 0 0 0 0 0 0 0 0 0 0 0 0 0 0 0 -1 -1 0 0 0 0 0 0 0 0 0 0 0 0 0 0 0 0 0 0c-1,0 -1,-1 -2,-1l0 0 0 0c-3,-3 -5,-6 -6,-10l0 0c0,-1 0,-2 0,-3l0 -484zm-87 432l-173 0c-10,0 -17,-8 -17,-17 0,-10 8,-17 17,-17l173 0c10,0 17,8 17,17 0,10 -8,17 -17,17zm0 -346l-173 0c-10,0 -17,-8 -17,-17 0,-10 8,-17 17,-17l173 0c10,0 17,8 17,17 0,10 -8,17 -17,17zm0 173l-415 0c-10,0 -17,-8 -17,-17 0,-10 8,-17 17,-17l415 0c10,0 17,8 17,17 0,10 -8,17 -17,17zm1280 277c-10,0 -17,-8 -17,-17l0 -554c0,-10 8,-17 17,-17 10,0 17,8 17,17l0 554c0,10 -8,17 -17,17zm-346 -138c-4,0 -9,-2 -12,-5 -7,-7 -7,-18 0,-24 7,-7 63,-67 0,-131 -46,-47 -44,-94 -33,-125 11,-33 33,-54 33,-55 7,-7 18,-7 24,0 7,7 7,18 0,24 -7,7 -63,67 0,131 46,47 44,94 33,125 -11,33 -33,54 -33,55 -3,3 -8,5 -12,5zm-346 0c-4,0 -9,-2 -12,-5 -7,-7 -7,-18 0,-24 7,-7 63,-67 0,-131 -46,-47 -44,-94 -33,-125 11,-33 33,-54 33,-55 7,-7 18,-7 24,0 7,7 7,18 0,24 -7,7 -63,67 0,131 46,47 44,94 33,125 -11,33 -33,54 -33,55 -3,3 -8,5 -12,5zm173 0c-4,0 -9,-2 -12,-5 -7,-7 -7,-18 0,-24 7,-7 63,-67 0,-131 -46,-47 -44,-94 -33,-125 11,-33 33,-54 33,-55 7,-7 18,-7 24,0 7,7 7,18 0,24 -7,7 -63,67 0,131 46,47 44,94 33,125 -11,33 -33,54 -33,55 -3,3 -8,5 -12,5zm179 484l-41 0 0 0c-10,0 -17,-8 -17,-17l0 0 0 -138 0 0c0,-10 8,-17 17,-17l0 0 67 0c11,-40 21,-59 22,-61 5,-8 15,-12 23,-7 8,4 12,15 7,23 -1,1 -78,153 -34,544 12,67 75,140 122,158 6,3 14,5 21,4 -31,-465 93,-722 115,-732 9,-4 19,0 23,9 3,7 1,14 -4,19 -7,12 -133,237 -99,712l0 0 0 1 0 0 0 0 0 0 0 0 0 0 0 0 0 0 0 0 0 0 0 0 0 0 0 0 0 0 0 0 0 0 0 0 0 0 0 0 0 0 0 0 0 0 0 0 0 0 0 0 0 0 0 0 0 0 0 0 0 0 0 0 0 0 0 0 0 0 0 0 0 0 0 0 0 0 0 0 0 0 0 0 0 0 0 0 0 0 0 0 0 0 0 0 0 0 0 0 0 0 0 0 0 0 0 0 0 0 0 0 0 0 0 0 0 0 0 0 0 0 0 0 0 0 0 0 0 0 0 0 0 0 0 0 0 0 0 0 0 0 0 0 0 0 0 0 0 0 0 0c-7,5 -17,10 -32,10 -9,0 -19,-2 -31,-6 -56,-22 -128,-102 -143,-183l0 0 0 0 0 0 0 0 0 0 0 0 0 0 0 0 0 0 0 0c-16,-138 -17,-246 -11,-330zm-24 -35l27 0c4,-42 10,-76 16,-104l-42 0 0 104zm-709 -415c-10,0 -17,-8 -17,-17l0 -346c0,-10 8,-17 17,-17 10,0 17,8 17,17l0 346c0,10 -8,17 -17,17zm1287 -104l-111 0c-10,0 -17,-8 -17,-17 0,-10 8,-17 17,-17l117 0c2,-17 4,-34 4,-52 0,-18 -1,-35 -4,-52l-117 0c-10,0 -17,-8 -17,-17 0,-10 8,-17 17,-17l111 0c-9,-38 -24,-73 -44,-105 -2,1 -5,2 -7,2l-59 0c-10,0 -17,-8 -17,-17 0,-10 8,-17 17,-17l43 0c-66,-84 -169,-138 -284,-138l-1022 136 0 454 1022 136c115,0 218,-54 284,-138l-43 0c-10,0 -17,-8 -17,-17 0,-10 8,-17 17,-17l59 0c3,0 5,1 7,2 20,-32 35,-68 45,-105z"/>

    </symbol>
</svg>