<svg width="38" height="31" viewBox="0 0 38 31" xmlns="http://www.w3.org/2000/svg" xmlns:xlink="http://www.w3.org/1999/xlink"><title>icon-google</title><desc>Created using Figma</desc><use xlink:href="#a" fill="#FFF"/><use xlink:href="#b" transform="translate(30.05 10.81)" fill="#FFF"/><defs><path id="a" d="M29.163 13.778h-13.61V18.6h8.303c-1.238 4.192-4.922 7.233-9.275 7.233-5.369 0-9.72-4.626-9.72-10.333S9.212 5.167 14.58 5.167c2.704 0 5.15 1.173 6.911 3.067l3.293-3.805C22.155 1.689 18.555 0 14.581 0 6.528 0 0 6.94 0 15.5 0 24.06 6.528 31 14.581 31c7.055 0 13.23-5.325 14.582-12.4v-4.822z"/><path id="b" d="M7.954 2.96H5.17V0H2.784v2.96H0v2.535h2.784v2.96H5.17v-2.96h2.784V2.96z"/></defs></svg>