<svg width="33" height="33" viewBox="0 0 33 33" xmlns="http://www.w3.org/2000/svg" xmlns:xlink="http://www.w3.org/1999/xlink"><title>icon-instagram</title><desc>Created using Figma</desc><use xlink:href="#a" fill="#FFF"/><defs><path id="a" d="M29.7 0H3.3A3.31 3.31 0 0 0 0 3.3v26.4A3.31 3.31 0 0 0 3.3 33h26.4a3.31 3.31 0 0 0 3.3-3.3V3.3A3.31 3.31 0 0 0 29.7 0zM16.5 9.9c3.63 0 6.6 2.97 6.6 6.6 0 3.63-2.97 6.6-6.6 6.6-3.63 0-6.6-2.97-6.6-6.6 0-3.63 2.97-6.6 6.6-6.6zM4.125 29.7c-.495 0-.825-.33-.825-.825V14.85h3.465c-.165.495-.165 1.155-.165 1.65 0 5.445 4.455 9.9 9.9 9.9s9.9-4.455 9.9-9.9c0-.495 0-1.155-.165-1.65H29.7v14.025c0 .495-.33.825-.825.825H4.125zM29.7 7.425c0 .495-.33.825-.825.825h-3.3c-.495 0-.825-.33-.825-.825v-3.3c0-.495.33-.825.825-.825h3.3c.495 0 .825.33.825.825v3.3z"/></defs></svg>