<svg width="38" height="30" viewBox="0 0 38 30" xmlns="http://www.w3.org/2000/svg" xmlns:xlink="http://www.w3.org/1999/xlink"><title>icon-twitter</title><desc>Created using Figma</desc><use xlink:href="#a" fill="#FFF"/><defs><path id="a" d="M38 3.55a15.92 15.92 0 0 1-4.476 1.193A7.65 7.65 0 0 0 36.95.553a15.994 15.994 0 0 1-4.953 1.84A7.88 7.88 0 0 0 26.307 0c-4.304 0-7.795 3.393-7.795 7.574 0 .594.069 1.173.202 1.727-6.478-.316-12.222-3.333-16.066-7.916a7.358 7.358 0 0 0-1.055 3.808c0 2.628 1.378 4.948 3.467 6.305a7.969 7.969 0 0 1-3.53-.951v.095c0 3.669 2.687 6.732 6.251 7.429a8.11 8.11 0 0 1-2.054.265c-.503 0-.99-.048-1.467-.14.992 3.011 3.87 5.201 7.28 5.261-2.666 2.031-6.029 3.238-9.68 3.238-.63 0-1.25-.037-1.86-.104A22.5 22.5 0 0 0 11.949 30c14.34 0 22.178-11.544 22.178-21.555l-.026-.981A15.335 15.335 0 0 0 38 3.549z"/></defs></svg>